<svg xmlns="http://www.w3.org/2000/svg" width="35" height="10" viewBox="0 0 35 10">
    <path fill="#2e3f50" fill-rule="evenodd" d="M7.984 6.908c-.588.586-1.412.872-2.237.775-1.074-.087-1.63-.834-1.797-1.745h8.518c.401-1.459.094-3.207-.953-4.271C10.245.355 8.581.107 7.572.02 6.424-.04 5.272.079 4.16.369 2.094.885.475 2.567.108 4.336c-.328 1.609.07 3.27 1.445 4.397 1.2.98 2.792 1.228 4.536 1.235 2.488 0 4.85-1.092 5.974-3.022l.021-.038h-4.1zm5.695-5.056C14.6.376 16.533-.11 18.459.02c.792.05 1.574.206 2.324.464.411.146.812.319 1.2.516-.48.569-.87 1.21-1.15 1.899-.707-.436-1.505-.701-2.332-.775-.256-.02-.514-.02-.77 0-.37.022-.706.224-.898.54-.092.216-.042.466.126.629.258.221.56.384.886.478 1.354.506 3.319.914 3.619 2.415.24 1.204-.433 2.484-1.637 3.14-1.204.656-2.791.761-4.302.618-1.242-.12-2.445-.5-3.532-1.113.55-.576 1.022-1.22 1.407-1.916.21.105.561.255.698.307.79.35 1.652.509 2.515.46.451.011.88-.192 1.159-.547.138-.22.111-.507-.066-.698-.267-.26-.596-.448-.956-.544-.995-.363-2.094-.534-2.865-1.309-.705-.705-.698-1.94-.206-2.732zM29.4.006l.43.014c1.012.066 2.673.335 3.944 1.647 1.277 1.319 1.469 3.695.547 5.28-1.123 1.93-3.486 3.021-5.974 3.021-1.744-.007-3.335-.254-4.536-1.235-1.375-1.127-1.772-2.788-1.444-4.397.366-1.769 1.978-3.45 4.05-3.967 1.114-.292 2.265-.41 3.413-.35zm.469 2.275c-1.303-.453-2.739.149-3.33 1.396-.732 1.427-.522 3.86 1.466 4.02 1.244.156 2.431-.568 2.862-1.745.62-1.445.453-3.21-.998-3.67zM7.61 2.267c.701.235 1.205.851 1.295 1.584H4.188l.094-.188c.591-1.246 2.026-1.848 3.329-1.396z"/>
</svg> 
